<svg xmlns="http://www.w3.org/2000/svg" xmlns:xlink="http://www.w3.org/1999/xlink" width="70" height="70" viewBox="0 0 70 70">
    <defs>
        <linearGradient id="t7wx5b0jtb" x1="50%" x2="50%" y1="0%" y2="100%">
            <stop offset="0%" stop-color="#9E8DE1"/>
            <stop offset="100%" stop-color="#6554C0"/>
        </linearGradient>
        <linearGradient id="hhpbyyg0oc" x1="73.23%" x2="26.77%" y1="0%" y2="100%">
            <stop offset="0%" stop-color="#FFF" stop-opacity="0"/>
            <stop offset="100%" stop-color="#FFF"/>
        </linearGradient>
        <linearGradient id="qgz11ggfme" x1="72.222%" x2="27.778%" y1="0%" y2="100%">
            <stop offset="0%" stop-color="#FFF" stop-opacity="0"/>
            <stop offset="100%" stop-color="#FFF"/>
        </linearGradient>
        <linearGradient id="ufm6rvebpg" x1="50%" x2="50%" y1="0%" y2="100%">
            <stop offset="0%" stop-color="#FFF"/>
            <stop offset="100%" stop-color="#8475D2"/>
        </linearGradient>
        <linearGradient id="jxip79qlqi" x1="50%" x2="50%" y1="0%" y2="100%">
            <stop offset="0%" stop-color="#FFF"/>
            <stop offset="100%" stop-color="#8475D2"/>
        </linearGradient>
        <rect id="4in0gri37a" width="70" height="70" x="0" y="0" rx="35"/>
        <path id="0fb7smsdjf" d="M0 0L56 0 56 7.591 0 7.591z"/>
    </defs>
    <g fill="none" fill-rule="evenodd">
        <g>
            <g>
                <g transform="translate(-237 -1231) translate(16 928) translate(221 303)">
                    <mask id="ol4t94856d" fill="#fff">
                        <use xlink:href="#4in0gri37a"/>
                    </mask>
                    <use fill="url(#t7wx5b0jtb)" xlink:href="#4in0gri37a"/>
                    <path fill="url(#hhpbyyg0oc)" d="M19.975 7.802c-7.854 5.264-11.07 9.729-9.648 13.395 1.422 3.667 4.638-.798 9.648-13.395z" mask="url(#ol4t94856d)" opacity=".3"/>
                    <path fill="url(#qgz11ggfme)" d="M57.76 6.443c-6.298 4.315-8.877 7.976-7.737 10.983 1.14 3.007 3.72-.655 7.738-10.983z" mask="url(#ol4t94856d)" opacity=".3" transform="scale(-1 1) rotate(7 0 -866.538)"/>
                    <g mask="url(#ol4t94856d)">
                        <g transform="translate(7.256 21)">
                            <mask id="qvc8v7rarh" fill="#fff">
                                <use xlink:href="#0fb7smsdjf"/>
                            </mask>
                            <use fill="#6554C0" fill-opacity="0" xlink:href="#0fb7smsdjf"/>
                            <rect width="50" height="32.727" x="3.744" y="2" fill="url(#ufm6rvebpg)" mask="url(#qvc8v7rarh)" rx="4"/>
                        </g>
                    </g>
                    <g mask="url(#ol4t94856d)">
                        <g>
                            <path fill="url(#jxip79qlqi)" d="M56 0c2.21 0 4 1.79 4 4v29.273c0 2.209-1.79 4-4 4H4c-2.21 0-4-1.791-4-4V4c0-2.21 1.79-4 4-4h52zM13.09 28.545H6.546c-.602 0-1.09.489-1.09 1.091 0 .563.425 1.026.972 1.085l.118.006h6.546c.602 0 1.09-.488 1.09-1.09 0-.603-.488-1.092-1.09-1.092zM15.819 22H7.091c-.904 0-1.636.733-1.636 1.636 0 .857.657 1.56 1.495 1.63l.14.007h8.728c.904 0 1.637-.733 1.637-1.637 0-.903-.733-1.636-1.637-1.636zm15 0h-8.727c-.904 0-1.636.733-1.636 1.636 0 .857.657 1.56 1.495 1.63l.14.007h8.728c.904 0 1.637-.733 1.637-1.637 0-.903-.733-1.636-1.637-1.636zm15 0h-8.727c-.904 0-1.636.733-1.636 1.636 0 .857.657 1.56 1.495 1.63l.14.007h8.728c.904 0 1.637-.733 1.637-1.637 0-.903-.733-1.636-1.637-1.636zM12.371 11.228H6.829c-.422 0-.771.347-.823.795L6 12.137v4.587c0 .463.316.846.725.902l.104.007h5.542c.422 0 .771-.347.823-.795l.006-.114v-4.587c0-.464-.316-.846-.725-.902l-.104-.007zM47.455 4.8c-3.314 0-6 2.686-6 6s2.686 6 6 6c3.313 0 6-2.686 6-6s-2.687-6-6-6z" transform="translate(5 31)"/>
                            <g fill="#FFF">
                                <path d="M2.714 2.403c-.1 0-.18.087-.18.195v1.41c0 .107.08.195.18.195h1.639c.1 0 .18-.088.18-.195v-1.41c0-.108-.08-.195-.18-.195h-1.64zm1.639 1.944h-1.64c-.172 0-.313-.152-.313-.34v-1.41c0-.186.14-.338.314-.338h1.639c.173 0 .314.152.314.339v1.41c0 .187-.141.339-.314.339z" transform="translate(5 31) translate(6 11.2)"/>
                                <path d="M2.467 2.907h-2.4C.03 2.907 0 2.874 0 2.835c0-.04.03-.072.067-.072h2.4c.037 0 .066.032.066.072 0 .04-.03.072-.066.072M2.467 3.483h-2.4C.03 3.483 0 3.45 0 3.41c0-.04.03-.072.067-.072h2.4c.037 0 .066.032.066.072 0 .04-.03.072-.066.072M7.133 2.907H4.6c-.037 0-.067-.033-.067-.072 0-.04.03-.072.067-.072h2.533c.037 0 .067.032.067.072 0 .04-.03.072-.067.072M7.133 3.483H4.6c-.037 0-.067-.033-.067-.072 0-.04.03-.072.067-.072h2.533c.037 0 .067.032.067.072 0 .04-.03.072-.067.072M2.837 2.398c-.03 0-.058-.022-.065-.055L2.293.159c-.009-.04.014-.078.05-.087.035-.01.071.015.08.053l.479 2.185c.008.039-.014.077-.05.087l-.015.001M4.132 2.398c-.005 0-.01 0-.016-.002-.036-.01-.057-.048-.049-.087L4.564.125c.009-.039.045-.062.08-.053.037.01.058.049.05.087l-.497 2.185c-.008.032-.035.054-.065.054M2.358 6.48c-.005 0-.01 0-.016-.002-.035-.01-.058-.048-.05-.087l.48-2.184c.009-.039.044-.063.08-.054.036.01.058.048.05.087l-.48 2.185c-.007.033-.034.055-.064.055M4.629 6.48c-.03 0-.057-.022-.065-.055l-.497-2.184c-.008-.039.013-.078.05-.087.035-.01.071.014.08.052l.497 2.185c.008.038-.013.077-.05.087l-.015.002" transform="translate(5 31) translate(6 11.2)"/>
                            </g>
                        </g>
                    </g>
                </g>
            </g>
        </g>
    </g>
</svg>
