<svg xmlns="http://www.w3.org/2000/svg" xmlns:xlink="http://www.w3.org/1999/xlink" width="70" height="70" viewBox="0 0 70 70">
    <defs>
        <linearGradient id="h2ti71e2nb" x1="50%" x2="50%" y1="0%" y2="100%">
            <stop offset="0%" stop-color="#2FDA86"/>
            <stop offset="100%" stop-color="#15B34E"/>
        </linearGradient>
        <linearGradient id="4e5c62m4gc" x1="50%" x2="50%" y1="0%" y2="100%">
            <stop offset="0%" stop-color="#FFF"/>
            <stop offset="100%" stop-color="#86FCBA"/>
        </linearGradient>
        <linearGradient id="0vgxnsxrie" x1="50%" x2="50%" y1="0%" y2="100%">
            <stop offset="0%" stop-color="#FFF"/>
            <stop offset="100%" stop-color="#86FCBA"/>
        </linearGradient>
        <linearGradient id="mp75pn1f5f" x1="50%" x2="50%" y1="0%" y2="100%">
            <stop offset="0%" stop-color="#FFF"/>
            <stop offset="100%" stop-color="#86FCBA"/>
        </linearGradient>
        <linearGradient id="sw7k6qx97g" x1="73.23%" x2="26.77%" y1="0%" y2="100%">
            <stop offset="0%" stop-color="#FFF" stop-opacity="0"/>
            <stop offset="100%" stop-color="#FFF"/>
        </linearGradient>
        <linearGradient id="c3svo41ioh" x1="72.222%" x2="27.778%" y1="0%" y2="100%">
            <stop offset="0%" stop-color="#FFF" stop-opacity="0"/>
            <stop offset="100%" stop-color="#FFF"/>
        </linearGradient>
        <rect id="lhg6t8xu8a" width="69.014" height="69.014" x=".555" y=".701" rx="34.507"/>
    </defs>
    <g fill="none" fill-rule="evenodd">
        <g>
            <g>
                <g transform="translate(-237 -978) translate(16 928) translate(221 50)">
                    <mask id="c2nu752uld" fill="#fff">
                        <use xlink:href="#lhg6t8xu8a"/>
                    </mask>
                    <use fill="url(#h2ti71e2nb)" xlink:href="#lhg6t8xu8a"/>
                    <path fill="url(#4e5c62m4gc)" d="M51.211 23.169c2.21 0 4 1.79 4 4v45.24c0 2.209-1.79 4-4 4H19.775c-2.21 0-4-1.791-4-4v-45.24c0-2.21 1.79-4 4-4H51.21zm-2.901 1.972H22.676c0 2.829-2.166 5.151-4.93 5.4v38.924c0 1.657 1.344 3 3 3H50.24c1.657 0 3-1.343 3-3V30.54c-2.763-.249-4.93-2.572-4.93-5.4z" mask="url(#c2nu752uld)"/>
                    <path fill="url(#0vgxnsxrie)" d="M47.16 27.113c0 2.357 1.804 4.292 4.107 4.5v35.88c0 1.656-1.343 3-3 3H22.718c-1.657 0-3-1.344-3-3v-35.88c2.303-.208 4.108-2.143 4.108-4.5H47.16zm-11.605 18.94c-4.629 0-8.38 3.752-8.38 8.38 0 4.628 3.751 8.38 8.38 8.38 4.628 0 8.38-3.752 8.38-8.38 0-4.628-3.752-8.38-8.38-8.38zm.493-13.803c-2.178 0-3.944 1.765-3.944 3.943 0 2.179 1.766 3.944 3.944 3.944s3.943-1.765 3.943-3.944c0-2.178-1.765-3.943-3.943-3.943z" mask="url(#c2nu752uld)"/>
                    <path fill="url(#mp75pn1f5f)" d="M35.445 58.791c.474 0 .892-.057 1.254-.171.363-.114.66-.247.888-.396.347-.221.52-.517.52-.888v-5.004h.237c.158 0 .28-.046.367-.136.087-.091.13-.235.13-.432 0-.11-.018-.213-.053-.308-.036-.094-.07-.17-.1-.225h-.58c-.009-.386-.11-.636-.302-.75-.194-.115-.46-.172-.799-.172-.181 0-.359.013-.532.041-.174.028-.3.053-.379.077v.804H35.6c-.158 0-.28.044-.367.13-.086.087-.13.23-.13.427 0 .11.016.212.048.307.031.095.067.174.106.237h.84v.603c-.095-.04-.217-.073-.367-.1-.15-.028-.303-.042-.461-.042-.434 0-.838.061-1.213.184-.374.122-.702.305-.982.55-.28.244-.499.556-.656.934-.158.379-.237.82-.237 1.325 0 .466.073.884.219 1.254.146.371.359.687.639.947.28.26.623.46 1.03.597.405.138.865.207 1.377.207zm.012-1.585c-.402 0-.71-.118-.923-.355-.213-.236-.319-.591-.319-1.065 0-.48.114-.838.343-1.07.229-.233.556-.35.982-.35.22 0 .41.048.568.143v2.484c-.063.055-.152.105-.266.148-.115.043-.243.065-.385.065z" mask="url(#c2nu752uld)"/>
                    <path fill="url(#sw7k6qx97g)" d="M17.746 13.907c-7.743 5.189-10.914 9.59-9.512 13.206 1.402 3.615 4.573-.787 9.512-13.206z" mask="url(#c2nu752uld)" opacity=".5"/>
                    <path fill="url(#c3svo41ioh)" d="M57.958 7.636c-6.21 4.255-8.754 7.865-7.63 10.829 1.125 2.964 3.668-.645 7.63-10.829z" mask="url(#c2nu752uld)" opacity=".5" transform="scale(-1 1) rotate(7 0 -869.567)"/>
                </g>
            </g>
        </g>
    </g>
</svg>
