<svg xmlns="http://www.w3.org/2000/svg" xmlns:xlink="http://www.w3.org/1999/xlink" width="68" height="74" viewBox="0 0 68 74">
    <defs>
        <circle id="tpzj20b1oa" cx="34" cy="34" r="32"/>
        <path id="ozuczx8src" d="M0.061 0.079L3.887 0.079 3.887 10.942 0.061 10.942z"/>
    </defs>
    <g fill="none" fill-rule="evenodd">
        <g>
            <g>
                <g>
                    <g transform="translate(-287 -411) translate(16 356) translate(5 55) translate(266)">
                        <path fill="#FFF" d="M34.285 73.427c.952.137 6.864-6.056 9.602-6.887C57.842 62.306 68 49.34 68 34 68 15.222 52.778 0 34 0S0 15.222 0 34c0 17.586 13.352 32.054 30.472 33.82 1.16.119 3.333 5.712 3.813 5.607z"/>
                        <mask id="84uzpq4glb" fill="#fff">
                            <use xlink:href="#tpzj20b1oa"/>
                        </mask>
                        <use fill="#E6F0FF" xlink:href="#tpzj20b1oa"/>
                        <g mask="url(#84uzpq4glb)">
                            <g>
                                <path fill="#F8A492" d="M96.606 23.948c3.546 1.136 3.242 1.698 3.7 1.831.542.158 7.59-2.162 7.59-2.162s20.816-6.693 21.927-7.096L146.44.955l10.05 6.609s-18.528 16.42-19.647 17.099c-1.118.678-30.376 6.288-32.935 6.87 0 0-2.769 1.869-4.547 2.982-1.778 1.114-3.967 1.333-4.516 1.565-.081.034-1.958.695-4.497.862-2.187.145-.207-1.034-.207-1.034s3.984-1.025 3.843-1.34c-.11-.242-2.25.452-4.668.638-.622.048-1.236.092-1.8.129-1.482.096-1.99-.822-.463-1.18.54-.126 1.441-.312 2.105-.35.717-.042 1.355-.32 1.95-.451 1.18-.26 2.045-.432 2.006-.477-.05-.06.144-.283-.518-.254-.796.036-2.46.5-3.637.458-.667-.024-2.063.014-2.063.014s-2.44-.13-2.407-.471c.074-.745 1.617-.936 2.524-.78.617-.207 2.087-.204 2.087-.204s2.954-.687 2.853-1.125c-.039-.175-1.766-.174-3.577-.32-1.914-.154-3.288-.36-3.334-.743-.074-.609 1.467-.604 1.467-.604s1.36.005 1.81-.029c.527-.04 2.096-.286 2.096-.286s5.413-1.121 5.283-1.53c-.129-.407-.858-1.33-1.22-1.382-.363-.052-1.064.213-1.426.16-.362-.051-1.13-.238-1.117-.703.013-.465 2.164-1.11 2.164-1.11s1.484-.347 2.507-.02" transform="translate(-48 3)"/>
                                <path fill="#FFB9AB" d="M70.696 24.993c-3.447 1.136-3.152 1.699-3.598 1.832-.527.157-7.378-2.163-7.378-2.163S39.48 17.969 38.4 17.566L22.246 2l-9.77 6.609s18.013 16.42 19.1 17.1c1.088.677 29.533 6.288 32.02 6.869 0 0 2.693 1.87 4.421 2.983 1.73 1.113 3.857 1.332 4.391 1.564.079.034 1.903.695 4.372.863 2.126.144.201-1.035.201-1.035s-3.873-1.025-3.736-1.34c.106-.242 2.187.452 4.539.638.604.048 1.201.093 1.75.13 1.44.095 1.934-.823.45-1.18-.525-.127-1.401-.313-2.047-.352-.697-.04-1.317-.32-1.895-.45-1.148-.259-1.989-.432-1.951-.477.048-.059-.14-.283.503-.253.774.035 2.391.5 3.536.457.649-.024 2.006.014 2.006.014s2.372-.13 2.34-.47c-.072-.745-1.572-.936-2.454-.78-.6-.208-2.03-.205-2.03-.205S75.123 32 75.22 31.56c.038-.175 1.718-.174 3.478-.32 1.861-.154 3.197-.36 3.241-.743.072-.608-1.426-.604-1.426-.604s-1.32.006-1.759-.029c-.513-.04-2.038-.286-2.038-.286s-5.262-1.12-5.137-1.53c.126-.407.835-1.33 1.187-1.381.352-.053 1.034.212 1.386.16.352-.052 1.1-.239 1.086-.704-.013-.465-2.103-1.11-2.103-1.11s-1.443-.347-2.438-.02" transform="translate(-48 3)"/>
                                <path fill="#00424C" d="M84.106 18.801c-.41 1.337.441 2.634 1.332 2.06.21-.136.37-.38.456-.661.41-1.338-.442-2.636-1.333-2.06-.21.136-.369.38-.455.661" transform="translate(-48 3)"/>
                                <g transform="translate(-48 3) translate(82 10)">
                                    <mask id="vz48i6hljd" fill="#fff">
                                        <use xlink:href="#ozuczx8src"/>
                                    </mask>
                                    <path fill="#00424C" d="M1.21 1.329c.24-.376.537-.493.903-.353.083.032.17.078.261.136 1.579 1.025.583 5.748-.13 8.18C.508 6.212.437 2.545 1.21 1.329m.871 9.076l.35.537.213-.643c.277-.839 2.63-8.248.032-9.934-.767-.5-1.49-.338-1.984.437-1.136 1.785-.783 6.271 1.39 9.603" mask="url(#vz48i6hljd)"/>
                                </g>
                                <path fill="#00424C" d="M86.213 19.189c.99-1.338 2.826-3.424 4.11-3.424.227 0 .437.065.622.211.375.297.486.644.341 1.062-.395 1.134-2.56 2.458-5.073 2.15zM85 19.728l.53.117c.484.105.965.155 1.435.155 2.362 0 4.424-1.24 4.923-2.672.265-.761.054-1.485-.58-1.986-2.119-1.673-5.584 3.314-5.972 3.889l-.336.497z" transform="translate(-48 3)"/>
                                <path fill="#FCC332" d="M67.309 50h33.382c1.827 0 3.309-1.473 3.309-3.289V23.289c0-1.816-1.481-3.289-3.309-3.289H67.31C65.482 20 64 21.473 64 23.289V46.71C64 48.528 65.482 50 67.309 50" transform="translate(-48 3)"/>
                                <path fill="#F29913" d="M80 20v30H66.597C65.163 50 64 48.138 64 45.842V24.158C64 21.86 65.163 20 66.597 20H80z" transform="translate(-48 3)"/>
                                <path fill="#00424C" d="M90 20h.992c5.367 9.574 2.08 26.344 1.27 30h-.774c.555-2.464 4.39-20.703-1.442-29.912-.018-.027-.033-.057-.046-.088M71.323 49.887c.004.038.006.076.006.113h-.61c-1.8-17.092.185-26.134 1.526-30H73c-1.219 3.232-3.558 12.14-1.677 29.887" transform="translate(-48 3)"/>
                                <g>
                                    <path fill="#FFBCAE" d="M66.562 8.904c-3.306 2.01-3.11 2.25-3.542 2.498-.51.292-8.364-.053-8.364-.053s-23.159-.868-24.407-.957L8.892 0 .476 8.917s23.55 10.7 24.883 11.048c1.334.349 32.817-2.034 35.595-2.156 0 0 3.356 1.044 5.486 1.632 2.13.588 4.429.22 5.055.295.093.011 2.197.144 4.839-.366 2.276-.439-.079-1.036-.079-1.036s-4.36.076-4.303-.26c.043-.258 2.426-.163 4.95-.624.649-.118 1.289-.237 1.876-.35 1.541-.3 1.803-1.305.142-1.242-.587.022-1.561.082-2.25.221-.745.15-1.475.053-2.12.086-1.28.065-2.14.126-2.113.074.035-.069-.299-.228.386-.375.824-.176 2.655-.174 3.846-.524.676-.198 2.114-.53 2.114-.53s1.704-1.02 1.693-1.156c-.063-.735-1.28-.386-2.164 0-.69-.034-2.191.356-2.191.356s-3.213.127-3.233-.315c-.008-.17 1.845-.295 3.757-.905 2.189-.699 2.73-1.683 2.669-2.073-.096-.597-1.329-.037-1.329-.037s-1.688.772-2.158.858c-.551.1-7.77.233-7.753-.188.018-.421.714-.973 1.07-1.118.355-.145 1.033-.341 1.388-.486.356-.145.6-.882.456-1.32-.144-.438-1.715-.202-1.715-.202s-1.757.1-2.711.68" transform="translate(-48 3) translate(0 32)"/>
                                </g>
                                <g>
                                    <path fill="#F8A492" d="M14.404 9.859c3.305 2.01 3.11 2.25 3.541 2.498.51.291 8.364-.054 8.364-.054s23.16-.867 24.408-.957L72.074.955l8.415 8.916S56.94 20.571 55.606 20.92c-1.334.349-32.817-2.035-35.595-2.157 0 0-3.355 1.044-5.485 1.633-2.13.588-4.43.219-5.056.295-.093.01-2.196.143-4.838-.366-2.277-.44.078-1.037.078-1.037s4.36.077 4.304-.259c-.044-.258-2.426-.164-4.95-.624-.65-.118-1.29-.238-1.877-.351-1.54-.3-1.803-1.305-.141-1.24.587.021 1.56.081 2.25.22.744.15 1.475.053 2.12.086 1.279.065 2.139.126 2.112.074-.034-.07.3-.228-.386-.375-.824-.176-2.655-.174-3.846-.524-.676-.198-2.113-.53-2.113-.53S.478 14.744.489 14.608c.063-.734 1.281-.385 2.165.001.689-.034 2.19.356 2.19.356s3.213.127 3.233-.316c.008-.169-1.845-.294-3.757-.904-2.188-.699-2.73-1.683-2.668-2.073.095-.597 1.328-.037 1.328-.037s1.688.771 2.158.857c.551.101 7.77.233 7.753-.188-.017-.42-.714-.973-1.07-1.117-.355-.146-1.033-.342-1.388-.486-.356-.145-.6-.883-.456-1.32.144-.438 1.715-.202 1.715-.202s1.758.1 2.712.68" transform="translate(-48 3) translate(86 26)"/>
                                </g>
                            </g>
                        </g>
                    </g>
                </g>
            </g>
        </g>
    </g>
</svg>
