<svg xmlns="http://www.w3.org/2000/svg" xmlns:xlink="http://www.w3.org/1999/xlink" width="68" height="74" viewBox="0 0 68 74">
    <defs>
        <circle id="khzi0pztsa" cx="34" cy="34" r="32"/>
    </defs>
    <g fill="none" fill-rule="evenodd">
        <g>
            <g>
                <g>
                    <g transform="translate(-199 -411) translate(16 356) translate(5 55) translate(178)">
                        <path fill="#FFF" d="M34.285 73.427c.952.137 6.864-6.056 9.602-6.887C57.842 62.306 68 49.34 68 34 68 15.222 52.778 0 34 0S0 15.222 0 34c0 17.586 13.352 32.054 30.472 33.82 1.16.119 3.333 5.712 3.813 5.607z"/>
                        <mask id="pptakdwh2b" fill="#fff">
                            <use xlink:href="#khzi0pztsa"/>
                        </mask>
                        <use fill="#E6F0FF" xlink:href="#khzi0pztsa"/>
                        <g mask="url(#pptakdwh2b)">
                            <g>
                                <path fill="#F1AD89" d="M41.47 10.824c2.13.611 1.946 2.922.458 4.473-1.488 1.55-11.598 5.135-11.598 5.135s7.5-3.868 11.598-4.42c1.818-.244 1.56 2.951.29 3.603-3.758 1.928-7.438 3.639-7.438 3.639s5.408-2.756 6.908-2.99c1.5-.233 1.906 2.535.24 3.69-3.191 1.379-4.412 1.794-4.412 1.794s.915-.107 2.927-.98c2.012-.872 3.453.83 1.485 3.272-1.969 2.44-9.056-1.49-12.197 2.404-3.14 3.893-7.858 4.213-7.858 4.213l-1.51 5.036-11.625-3.126 3.975-9.018s-.565-4.025.392-7.35c.956-3.326.996-11.225 1.479-14 .484-2.775 3.358-.572 4.116 1.064.759 1.637-.209 4.373-.318 5.186-.11.812 1.699 7.796 2.8 6.43 1.101-1.366 18.156-8.665 20.287-8.055z" transform="translate(3)"/>
                                <g>
                                    <path fill="#0057CC" fill-rule="nonzero" d="M18.34 0H3.518C1.575 0 0 1.575 0 3.518V31.66c0 1.943 1.575 3.518 3.518 3.518H18.34c1.943 0 3.518-1.575 3.518-3.518V3.518C21.858 1.575 20.283 0 18.34 0z" transform="translate(3) translate(18.927 .634)"/>
                                    <path fill="#E8F7ED" fill-rule="nonzero" d="M3.518 1.407H18.34c1.166 0 2.111.945 2.111 2.11v28.144c0 1.166-.945 2.11-2.11 2.11H3.517c-1.166 0-2.11-.944-2.11-2.11V3.518c0-1.166.944-2.11 2.11-2.11z" transform="translate(3) translate(18.927 .634)"/>
                                    <path fill="#15B34E" d="M18.643 30.795c0 .317-.427.573-.954.573H4.17c-.527 0-.954-.256-.954-.573v-2.103c0-.317.427-.573.954-.573h13.52c.527 0 .954.256.954.573v2.103" transform="translate(3) translate(18.927 .634)"/>
                                    <path fill="#99C4FF" d="M16.395 6.694c0 .164-.303.298-.676.298h-9.58c-.373 0-.675-.134-.675-.298V5.6c0-.165.302-.298.676-.298h9.579c.373 0 .676.133.676.298v1.094M16.395 10.919c0 .165-.303.298-.676.298h-9.58c-.373 0-.675-.133-.675-.298V9.825c0-.164.302-.298.676-.298h9.579c.373 0 .676.134.676.298v1.094M16.395 15.144c0 .165-.303.299-.676.299h-9.58c-.373 0-.675-.134-.675-.299v-1.093c0-.165.302-.299.676-.299h9.579c.373 0 .676.134.676.299v1.093M16.395 19.37c0 .164-.303.298-.676.298h-9.58c-.373 0-.675-.134-.675-.298v-1.094c0-.165.302-.298.676-.298h9.579c.373 0 .676.133.676.298v1.094" transform="translate(3) translate(18.927 .634)"/>
                                </g>
                                <path fill="#15B34E" d="M18.344 59.862L22.475 37.015 10.679 28.181 0 59.862 16.741 66" transform="translate(3)"/>
                            </g>
                        </g>
                        <path fill="#F1AD89" d="M41.813 66.586c2.286 2.924 6.137 4.969 6.137 4.969l.558 4.637h11.13l3.367-.913-3.115-7.204s2.694-4.298 1.29-9.477l-4.086-15.072c-.88-3.247-5.062-3.523-4.402-1.089.66 2.435 1.215 4.94 1.215 4.94s-.85-1.468-2.122-5.853c-.198-1.191-4.009-1.157-3.338 1.317.67 2.473 1.57 5.341 1.57 5.341s-.573-.28-2.131-4.65c-.626-1.754-4.707-1.161-3.98 1.39 1.253 4.39.957 4.906.957 4.906l-5.968-17.425c-1.048-3.06-4.41-3.41-3.435.185l5.227 19.285c.493 1.816-1.468 4.837-2.105 4.23-.637-.607-2.213-2.253-3.932-4.004-1.72-1.751-5.084.705-2.979 2.873 2.106 2.167 7.856 8.69 10.142 11.614" mask="url(#pptakdwh2b)"/>
                    </g>
                </g>
            </g>
        </g>
    </g>
</svg>
