<svg xmlns="http://www.w3.org/2000/svg" xmlns:xlink="http://www.w3.org/1999/xlink" width="260" height="186" viewBox="0 0 260 186">
    <defs>
        <linearGradient id="e8wn5aci7b" x1="50%" x2="50%" y1="0%" y2="100%">
            <stop offset="0%" stop-color="#ECF8FF"/>
            <stop offset="100%" stop-color="#D4EEFF"/>
        </linearGradient>
        <linearGradient id="1cwg8m7uwf" x1="50%" x2="50%" y1="0%" y2="100%">
            <stop offset="0%" stop-color="#ECF8FF"/>
            <stop offset="100%" stop-color="#D4EEFF"/>
        </linearGradient>
        <path id="0kob49wjta" d="M117.129 175.277C174.1 147.857 259 190.567 259 128.588 259 66.608 181.91 0 117.129 0 89.204 0 79.182 18.606 59.04 34.194 32.456 54.768.834 49.96.834 85.224c0 84.018 59.323 117.475 116.295 90.053z"/>
        <path id="st7nyhajqd" d="M0.198 0.259L12.703 0.259 12.703 35.74 0.198 35.74z"/>
    </defs>
    <g fill="none" fill-rule="evenodd">
        <g>
            <g>
                <g transform="translate(-58 -627) translate(58 627) translate(.551 .58)">
                    <mask id="icf34pji5c" fill="#fff">
                        <use xlink:href="#0kob49wjta"/>
                    </mask>
                    <use fill="url(#e8wn5aci7b)" xlink:href="#0kob49wjta"/>
                    <g mask="url(#icf34pji5c)">
                        <g>
                            <path fill="#F8A492" d="M315.726 78.217c11.587 3.71 10.596 5.547 12.093 5.982 1.771.514 24.803-7.064 24.803-7.064s68.033-21.86 71.664-23.175l54.306-50.842 32.843 21.586s-60.552 53.633-64.207 55.848c-3.656 2.214-99.276 20.539-107.638 22.437 0 0-9.05 6.106-14.86 9.743-5.812 3.636-12.964 4.352-14.76 5.11-.265.112-6.398 2.27-14.695 2.817-7.15.472-.678-3.38-.678-3.38s13.021-3.347 12.558-4.374c-.356-.793-7.352 1.473-15.255 2.08-2.033.159-4.04.304-5.883.424-4.841.314-6.502-2.685-1.511-3.853 1.762-.413 4.709-1.022 6.877-1.148 2.343-.134 4.43-1.043 6.372-1.47 3.86-.846 6.684-1.411 6.559-1.558-.162-.192.47-.925-1.692-.828-2.602.116-8.039 1.633-11.887 1.494-2.182-.079-6.743.046-6.743.046s-7.973-.424-7.866-1.538c.241-2.432 5.284-3.056 8.248-2.548 2.016-.676 6.822-.665 6.822-.665s9.654-2.243 9.324-3.676c-.128-.57-5.774-.568-11.692-1.044-6.256-.503-10.745-1.177-10.894-2.428-.243-1.987 4.793-1.97 4.793-1.97s4.442.016 5.913-.096c1.725-.131 6.852-.934 6.852-.934s17.69-3.663 17.267-4.996c-.421-1.332-2.806-4.344-3.99-4.514-1.184-.171-3.475.695-4.659.524-1.184-.17-3.694-.78-3.649-2.299.043-1.519 7.07-3.624 7.07-3.624s4.85-1.136 8.195-.067" transform="translate(-149 -16.35)"/>
                            <path fill="#FFB9AB" d="M231.046 81.632c-11.265 3.708-10.301 5.547-11.757 5.981-1.722.513-24.114-7.064-24.114-7.064s-66.143-21.86-69.673-23.175L72.704 6.532l-31.93 21.585s58.87 53.634 62.423 55.849c3.554 2.215 96.52 20.54 104.648 22.437 0 0 8.799 6.106 14.447 9.743 5.651 3.636 12.604 4.352 14.35 5.11.257.112 6.22 2.27 14.287 2.817 6.95.471.659-3.38.659-3.38s-12.66-3.347-12.21-4.374c.347-.793 7.149 1.474 14.832 2.081 1.977.157 3.928.303 5.72.422 4.706.314 6.322-2.685 1.469-3.852-1.713-.413-4.577-1.022-6.686-1.148-2.278-.134-4.307-1.044-6.196-1.47-3.75-.846-6.498-1.411-6.376-1.558.158-.193-.457-.925 1.646-.828 2.53.116 7.815 1.633 11.556 1.494 2.12-.078 6.556.046 6.556.046s7.751-.424 7.647-1.538c-.235-2.432-5.138-3.056-8.019-2.547-1.96-.678-6.632-.666-6.632-.666s-9.386-2.243-9.065-3.676c.125-.57 5.613-.568 11.367-1.043 6.082-.504 10.447-1.178 10.592-2.428.236-1.988-4.661-1.972-4.661-1.972s-4.317.017-5.749-.096c-1.676-.13-6.66-.933-6.66-.933s-17.2-3.662-16.788-4.996c.41-1.332 2.728-4.344 3.879-4.515 1.15-.17 3.378.695 4.53.525 1.15-.17 3.591-.78 3.547-2.298-.041-1.52-6.873-3.625-6.873-3.625s-4.715-1.136-7.968-.066" transform="translate(-149 -16.35)"/>
                            <path fill="#00424C" d="M274.872 61.407c-1.337 4.367 1.443 8.602 4.354 6.725.685-.442 1.208-1.236 1.49-2.157 1.342-4.369-1.442-8.609-4.355-6.726-.684.443-1.206 1.237-1.489 2.158" transform="translate(-149 -16.35)"/>
                            <g transform="translate(-149 -16.35) translate(267.99 32.661)">
                                <mask id="215ue6ukqe" fill="#fff">
                                    <use xlink:href="#st7nyhajqd"/>
                                </mask>
                                <path fill="#00424C" d="M3.957 4.34C4.74 3.113 5.71 2.73 6.905 3.189c.272.105.557.254.854.445 5.159 3.347 1.904 18.773-.426 26.715C1.661 20.29 1.43 8.312 3.957 4.34m2.848 29.642l1.146 1.757.694-2.102c.905-2.74 8.596-26.94.104-32.446C6.243-.44 3.878.088 2.265 2.62c-3.712 5.83-2.558 20.482 4.54 31.363" mask="url(#215ue6ukqe)"/>
                            </g>
                            <path fill="#00424C" d="M281.759 62.674c3.236-4.37 9.236-11.183 13.432-11.183.743 0 1.427.212 2.032.69 1.226.97 1.591 2.103 1.116 3.467-1.292 3.705-8.365 8.028-16.58 7.026zm-3.964 1.76l1.734.38c1.58.347 3.153.509 4.688.509 7.719 0 14.46-4.051 16.09-8.728.866-2.486.175-4.85-1.897-6.488-6.924-5.464-18.25 10.824-19.518 12.703l-1.097 1.623z" transform="translate(-149 -16.35)"/>
                            <path fill="#FCC332" d="M219.977 163.306h109.099c5.972 0 10.814-4.809 10.814-10.742v-76.5c0-5.932-4.841-10.741-10.814-10.741H219.978c-5.973 0-10.815 4.809-10.815 10.741v76.501c0 5.932 4.842 10.741 10.814 10.741" transform="translate(-149 -16.35)"/>
                            <path fill="#F29913" d="M261.454 65.323v97.983H217.65c-4.687 0-8.487-6.08-8.487-13.579V78.902c0-7.5 3.8-13.58 8.487-13.58h43.804z" transform="translate(-149 -16.35)"/>
                            <path fill="#00424C" d="M294.136 65.323h3.243c17.54 31.27 6.794 86.041 4.15 97.983h-2.532c1.815-8.046 14.347-67.62-4.712-97.695-.056-.09-.107-.187-.149-.288M233.097 162.936c.013.125.02.248.02.37h-1.997c-5.878-55.824.608-85.355 4.988-97.983h2.469c-3.983 10.555-11.627 39.649-5.48 97.613" transform="translate(-149 -16.35)"/>
                            <g>
                                <path fill="#FFBCAE" d="M217.535 29.083c-10.802 6.567-10.166 7.35-11.574 8.158-1.664.952-27.336-.175-27.336-.175s-75.687-2.833-79.767-3.126L29.06 0 1.555 29.123S78.52 64.07 82.878 65.209c4.36 1.139 107.252-6.645 116.33-7.044 0 0 10.967 3.41 17.928 5.333 6.962 1.92 14.476.715 16.523.962.303.037 7.178.47 15.813-1.195 7.44-1.433-.256-3.385-.256-3.385s-14.25.25-14.066-.847c.143-.843 7.93-.534 16.177-2.038 2.123-.387 4.215-.777 6.134-1.146 5.036-.98 5.892-4.261.462-4.054-1.918.072-5.101.269-7.353.722-2.432.488-4.82.173-6.927.28-4.182.212-6.993.413-6.905.242.112-.226-.978-.746 1.261-1.225 2.692-.574 8.676-.567 12.57-1.711 2.208-.648 6.906-1.73 6.906-1.73s5.572-3.335 5.535-3.778c-.206-2.4-4.186-1.26-7.074.003-2.251-.114-7.16 1.162-7.16 1.162s-10.5.413-10.565-1.031c-.027-.553 6.03-.963 12.278-2.955 7.153-2.282 8.925-5.496 8.722-6.77-.311-1.95-4.34-.122-4.34-.122s-5.52 2.52-7.055 2.802c-1.801.33-25.394.76-25.337-.614.057-1.375 2.334-3.178 3.496-3.651 1.161-.475 3.375-1.115 4.538-1.586 1.16-.475 1.96-2.882 1.49-4.311-.472-1.431-5.606-.66-5.606-.66s-5.744.325-8.862 2.22" transform="translate(-149 -16.35) translate(0 104.516)"/>
                            </g>
                            <g>
                                <path fill="#F8A492" d="M47.074 32.2c10.802 6.568 10.165 7.351 11.573 8.159 1.665.952 27.337-.175 27.337-.175s75.687-2.832 79.767-3.126l69.798-33.94 27.504 29.123s-76.963 34.947-81.322 36.086c-4.361 1.139-107.252-6.645-116.33-7.044 0 0-10.968 3.41-17.929 5.333-6.961 1.92-14.476.715-16.522.963-.303.036-7.178.47-15.813-1.195-7.44-1.434.255-3.386.255-3.386s14.252.251 14.066-.846c-.143-.844-7.929-.535-16.177-2.039-2.122-.387-4.214-.776-6.133-1.146-5.036-.98-5.892-4.261-.462-4.053 1.918.071 5.101.268 7.352.721 2.433.49 4.822.173 6.928.28 4.181.213 6.992.413 6.905.242-.112-.225.977-.745-1.261-1.224-2.692-.574-8.676-.567-12.57-1.711-2.208-.648-6.907-1.731-6.907-1.731S1.562 48.155 1.6 47.713c.206-2.398 4.186-1.26 7.074.003 2.251-.113 7.16 1.162 7.16 1.162s10.499.413 10.565-1.031c.026-.553-6.03-.963-12.278-2.955-7.154-2.282-8.926-5.496-8.722-6.77.311-1.95 4.34-.122 4.34-.122s5.52 2.52 7.055 2.802c1.801.33 25.393.76 25.336-.614-.056-1.375-2.333-3.178-3.495-3.651-1.162-.475-3.375-1.115-4.538-1.586-1.161-.474-1.96-2.883-1.49-4.312.472-1.43 5.606-.659 5.606-.659s5.743.325 8.862 2.22" transform="translate(-149 -16.35) translate(281.063 84.92)"/>
                            </g>
                        </g>
                    </g>
                </g>
                <path fill="url(#1cwg8m7uwf)" d="M81.727 3.769C80.13 7.779 72 22.157 47 36.854c-25 14.698-15.211-13.043 6.75-21.71C75.71 6.48 83.323-.241 81.726 3.77z" transform="translate(-58 -627) translate(58 627)"/>
            </g>
        </g>
    </g>
</svg>
