<svg xmlns="http://www.w3.org/2000/svg" xmlns:xlink="http://www.w3.org/1999/xlink" width="68" height="74" viewBox="0 0 68 74">
    <defs>
        <circle id="sdq32876fa" cx="34" cy="34" r="32"/>
    </defs>
    <g fill="none" fill-rule="evenodd">
        <g>
            <g>
                <g>
                    <g transform="translate(-23 -411) translate(16 356) translate(5 55) translate(2)">
                        <path fill="#FFF" d="M34.285 73.427c.952.137 6.864-6.056 9.602-6.887C57.842 62.306 68 49.34 68 34 68 15.222 52.778 0 34 0S0 15.222 0 34c0 17.586 13.352 32.054 30.472 33.82 1.16.119 3.333 5.712 3.813 5.607z"/>
                        <mask id="f7642mkaob" fill="#fff">
                            <use xlink:href="#sdq32876fa"/>
                        </mask>
                        <use fill="#E6F0FF" xlink:href="#sdq32876fa"/>
                        <g mask="url(#f7642mkaob)">
                            <g>
                                <path fill="#F1AD89" d="M41.47 10.824c2.13.611 1.946 2.922.458 4.473-1.488 1.55-11.598 5.135-11.598 5.135s7.5-3.868 11.598-4.42c1.818-.244 1.56 2.951.29 3.603-3.758 1.928-7.438 3.639-7.438 3.639s5.408-2.756 6.908-2.99c1.5-.233 1.906 2.535.24 3.69-3.191 1.379-4.412 1.794-4.412 1.794s.915-.107 2.927-.98c2.012-.872 3.453.83 1.485 3.272-1.969 2.44-9.056-1.49-12.197 2.404-3.14 3.893-7.858 4.213-7.858 4.213l-1.51 5.036-11.625-3.126 3.975-9.018s-.565-4.025.392-7.35c.956-3.326.996-11.225 1.479-14 .484-2.775 3.358-.572 4.116 1.064.759 1.637-.209 4.373-.318 5.186-.11.812 1.699 7.796 2.8 6.43 1.101-1.366 18.156-8.665 20.287-8.055z" transform="translate(4.171 13.564)"/>
                                <g>
                                    <path fill="#0057CC" fill-rule="nonzero" d="M18.34 0H3.518C1.575 0 0 1.575 0 3.518V31.66c0 1.943 1.575 3.518 3.518 3.518H18.34c1.943 0 3.518-1.575 3.518-3.518V3.518C21.858 1.575 20.283 0 18.34 0z" transform="translate(4.171 13.564) translate(18.927 .634)"/>
                                    <path fill="#E8F7ED" fill-rule="nonzero" d="M3.518 1.407H18.34c1.166 0 2.111.945 2.111 2.11v28.144c0 1.166-.945 2.11-2.11 2.11H3.517c-1.166 0-2.11-.944-2.11-2.11V3.518c0-1.166.944-2.11 2.11-2.11z" transform="translate(4.171 13.564) translate(18.927 .634)"/>
                                    <path fill="#006DFF" d="M16.395 30.795c0 .317-.303.573-.676.573h-9.58c-.373 0-.675-.256-.675-.573v-2.103c0-.317.302-.573.676-.573h9.579c.373 0 .676.256.676.573v2.103" transform="translate(4.171 13.564) translate(18.927 .634)"/>
                                </g>
                                <g>
                                    <path fill="#FFF" d="M0 0H14.319V14.319H0z" opacity=".01" transform="translate(4.171 13.564) translate(22.896 7.738)"/>
                                    <g>
                                        <path fill="#FFF" d="M1.193 0C.534 0 0 .534 0 1.193v9.546c0 .66.534 1.194 1.193 1.194h9.546c.66 0 1.194-.535 1.194-1.194V1.193C11.933.534 11.398 0 10.739 0H1.193z" transform="translate(4.171 13.564) translate(22.896 7.738) translate(1.193 1.193)"/>
                                        <path fill="#D9D8D8" fill-rule="nonzero" d="M10.74 0c.638 0 1.16.502 1.191 1.134l.002.06v9.545c0 .64-.503 1.161-1.134 1.192l-.06.002H1.193c-.639 0-1.16-.503-1.192-1.134L0 10.739V1.193C0 .554.502.033 1.134.002L1.194 0h9.545zm0 .09H1.192C.603.09.121.552.091 1.135l-.002.058v9.546c0 .59.463 1.072 1.046 1.103l.058.001h9.546c.59 0 1.072-.463 1.103-1.045l.001-.059V1.193c0-.59-.463-1.071-1.045-1.102L10.739.09z" transform="translate(4.171 13.564) translate(22.896 7.738) translate(1.193 1.193)"/>
                                        <path fill="#0068FF" fill-rule="nonzero" d="M4.492 0l6.396.01c.38.047.706.273.888.592L2.304 1.965c-.684.098-1.169.739-1.07 1.412l1.178 8.555H1.193l-.071-.001c-.612-.087-1.09-.612-1.09-1.236L0 2.455V1.193c0-.049.003-.097.009-.145l-.005.037c.004-.036.01-.072.016-.108l-.011.071C.014 1.008.02.97.029.93.124.51.442.172.852.05c.074-.021.152-.036.236-.045L1.193 0h3.299z" transform="translate(4.171 13.564) translate(22.896 7.738) translate(1.193 1.193)"/>
                                        <path fill="#0068FF" fill-rule="nonzero" d="M9.256 4.01c.28 0 .505.086.688.28.183.182.269.419.258.709 0 .269-.086.505-.258.688-.183.183-.409.28-.688.28-.28 0-.516-.097-.688-.28-.183-.194-.269-.42-.269-.699 0-.28.097-.516.269-.699.183-.182.408-.28.688-.28zM6.418 4c.204 0 .365.064.484.203.053-.118.14-.172.258-.172.086 0 .15.033.204.086.054.054.086.13.075.172v1.323c0 .086-.021.15-.075.204-.054.054-.118.086-.204.086-.119 0-.205-.054-.258-.172-.119.14-.28.204-.484.204-.247 0-.452-.086-.624-.28-.161-.182-.247-.419-.247-.687 0-.27.075-.495.247-.688.172-.183.377-.28.624-.28zm-1.269-.753c.258 0 .387.107.387.311 0 .086-.107.258-.3.516L4.224 5.375h1.032c.226 0 .333.086.333.28 0 .182-.107.28-.333.28H3.849c-.301 0-.452-.108-.452-.334 0-.075.043-.172.118-.269L4.72 3.784h-.935c-.107 0-.193-.021-.247-.075-.054-.043-.086-.108-.086-.194 0-.075.032-.14.086-.193.054-.054.14-.075.247-.075zm2.73-.27c.087 0 .151.033.205.087.054.054.075.118.075.204v2.365c0 .086-.021.15-.075.204-.054.054-.118.086-.204.086s-.15-.032-.204-.086c-.054-.053-.076-.118-.076-.204V3.268c0-.075.022-.14.076-.204.053-.054.118-.086.204-.086zM6.505 4.527c-.118 0-.215.043-.28.129-.075.086-.107.193-.107.322 0 .14.043.248.107.334.065.086.162.129.28.129.118 0 .215-.043.28-.13.064-.085.096-.204.107-.333 0-.129-.043-.236-.108-.322-.064-.086-.16-.13-.28-.13zm2.763 0c-.119 0-.215.043-.28.129-.075.086-.107.193-.107.322 0 .14.043.248.107.334.065.086.161.129.28.129.118 0 .215-.043.28-.13.064-.085.096-.204.107-.333 0-.129-.043-.236-.108-.322-.064-.086-.161-.13-.28-.13z" transform="translate(4.171 13.564) translate(22.896 7.738) translate(1.193 1.193)"/>
                                        <path fill="#03CA77" fill-rule="nonzero" d="M8.794 6.375c.172 0 .311.129.311.312v2.977c0 .172-.14.312-.311.312h-.742c.032-.032.054-.075.075-.129l.774-1.881c.01-.032.022-.075.022-.118 0-.054-.033-.097-.076-.14-.043-.043-.096-.065-.15-.065-.118 0-.194.065-.237.172l-.344.893-.322-.893c-.043-.118-.118-.172-.237-.172-.053 0-.107.022-.15.065-.054.032-.075.086-.075.14 0 .043.01.086.021.118l.527 1.311-.194.42c-.021.053-.032.096-.032.14 0 .053.022.096.065.14h-4.01c-.172 0-.312-.14-.312-.313V6.687c0-.172.14-.312.312-.312zM6.235 7.622c-.226 0-.42.086-.57.258-.161.183-.236.387-.236.645s.086.473.236.645c.15.172.344.258.57.258.194 0 .344-.065.452-.194.053.108.14.162.247.162.075 0 .129-.022.183-.076.053-.053.075-.107.075-.182V7.912c0-.075-.022-.129-.075-.183-.043-.053-.108-.075-.183-.075-.118 0-.194.054-.247.161-.119-.129-.258-.193-.452-.193zM4.58 6.945h-.613c-.183 0-.269.086-.269.268v1.935c0 .076.032.151.075.194.043.054.108.075.183.075s.14-.032.183-.075c.054-.043.075-.108.075-.194V8.59h.387c.237 0 .44-.064.602-.215.172-.15.258-.344.258-.612 0-.237-.086-.441-.247-.592-.172-.15-.376-.225-.634-.225zm1.741 1.15c.108 0 .194.043.258.118.065.075.097.183.097.301s-.032.215-.097.301c-.064.075-.15.118-.258.118-.107 0-.193-.032-.258-.118-.064-.075-.097-.183-.097-.3 0-.12.033-.216.097-.302.065-.075.15-.118.258-.118zM4.57 7.418c.107 0 .193.032.258.107.064.065.097.15.097.258 0 .097-.033.194-.097.258-.065.075-.15.108-.258.108h-.355v-.731z" transform="translate(4.171 13.564) translate(22.896 7.738) translate(1.193 1.193)"/>
                                    </g>
                                </g>
                                <path fill="#15B34E" d="M18.344 59.862L22.475 37.015 10.679 28.181 0 59.862 18.344 59.862" transform="translate(4.171 13.564)"/>
                            </g>
                        </g>
                    </g>
                </g>
            </g>
        </g>
    </g>
</svg>
