<svg xmlns="http://www.w3.org/2000/svg" xmlns:xlink="http://www.w3.org/1999/xlink" width="68" height="74" viewBox="0 0 68 74">
    <defs>
        <circle id="njikbbfmxa" cx="34" cy="34" r="32"/>
    </defs>
    <g fill="none" fill-rule="evenodd">
        <g>
            <g>
                <g>
                    <g transform="translate(-111 -411) translate(16 356) translate(5 55) translate(90)">
                        <path fill="#FFF" d="M34.285 73.427c.952.137 6.864-6.056 9.602-6.887C57.842 62.306 68 49.34 68 34 68 15.222 52.778 0 34 0S0 15.222 0 34c0 17.586 13.352 32.054 30.472 33.82 1.16.119 3.333 5.712 3.813 5.607z"/>
                        <mask id="ojjzovo9vb" fill="#fff">
                            <use xlink:href="#njikbbfmxa"/>
                        </mask>
                        <use fill="#E6F0FF" xlink:href="#njikbbfmxa"/>
                        <rect width="24" height="24" x="37" y="19" fill="#FFF" mask="url(#ojjzovo9vb)" rx="2"/>
                        <g fill="#000" mask="url(#ojjzovo9vb)">
                            <g>
                                <path d="M0 6h6V0H0v6zm1.41-1.41h3.178V1.41H1.411v3.18z" transform="translate(39 21)"/>
                                <path d="M2 3L3 3 3 2 2 2zM0 20h6v-6H0v6zm1.41-1.41h3.178v-3.18H1.411v3.18z" transform="translate(39 21)"/>
                                <path d="M2 18L3 18 3 17 2 17zM14 6h6V0h-6v6zm1.41-1.41h3.178V1.41h-3.177v3.18z" transform="translate(39 21)"/>
                                <path d="M17 3L18 3 18 2 17 2zM16 7L16 8.72 18.077 8.72 18.077 11 20 11 20 7zM10 0v3h1.739V1.589H13V0h-3zm.874 1.59h.862V.822h-.862v.768zM7 18L8 18 8 16 7 16z" transform="translate(39 21)"/>
                                <path d="M8.214 16L8.214 18.641 7.874 18.641 7.874 18.638 7 18.638 7 20 9 20 9 16zM17 17L17 20 18.103 20 18.103 19.164 18.1 19.164 18.1 18.459 20 18.459 20 17z" transform="translate(39 21)"/>
                                <path d="M19 20L20 20 20 19 19 19zM0 8L5 8 5 7 0 7zM0 8L0 9.553 2.592 9.553 2.592 8.771 4.12 8.771 4.12 10.469 4.12 11 5 11 5 8zM4 13L5 13 5 11 4 11zM8 10L6 10 6 13.55 6.563 13.55 6.563 15 8 15zM18 13L20 13 20 11 18 11zM8 15L10 15 10 13 8 13zM9 3L9 6 11 6 11 4.583 9.758 4.583 9.758 3zM6 6L8 6 8 3 6 3zM12 5L14 5 14 4 12 4zM0 12L2 12 2 11 0 11zM3 12L4 12 4 11 3 11zM0 13L4 13 4 12 0 12zM17 16L20 16 20 15 17 15zM9 17L11 17 11 16 9 16zM9 20L11 20 11 18 9 18zM7 2L8 2 8 0 7 0zM8 2L9 2 9 1 8 1zM8 1L9 1 9 0 8 0zM16 11L17 11 17 10 16 10z" transform="translate(39 21)"/>
                                <path d="M14.22 9.057h-1.261v.926h-.981v-.935h.98V7.852h1.262v1.205zm.886-2.322h-1.59V6H11.04v4.268H9.812V6H6.534v.735H6v2.386h1.894V7.877h.664v3.488h3.007V12H17v-.635h-1.894v-4.63zM15 13L17 13 17 12 15 12zM13 18L13 20 15 20 15 18.579 14.417 18.579 14.417 18zM15.403 16L15.408 18.56 15 18.56 15 20 16 20 16 16z" transform="translate(39 21)"/>
                                <path d="M11.554 13.74h1.177v-1.21h-1.177v1.21zM13.96 12H11v2.55h1.12V17h1.511v-.587h1.016V15.11H16v-.82h-2.04V12z" transform="translate(39 21)"/>
                            </g>
                        </g>
                        <g mask="url(#ojjzovo9vb)">
                            <g>
                                <path fill="#F1AD89" d="M41.47 10.824c2.13.611 1.946 2.922.458 4.473-1.488 1.55-11.598 5.135-11.598 5.135s7.5-3.868 11.598-4.42c1.818-.244 1.56 2.951.29 3.603-3.758 1.928-7.438 3.639-7.438 3.639s5.408-2.756 6.908-2.99c1.5-.233 1.906 2.535.24 3.69-3.191 1.379-4.412 1.794-4.412 1.794s.915-.107 2.927-.98c2.012-.872 3.453.83 1.485 3.272-1.969 2.44-9.056-1.49-12.197 2.404-3.14 3.893-7.858 4.213-7.858 4.213l-1.51 5.036-11.625-3.126 3.975-9.018s-.565-4.025.392-7.35c.956-3.326.996-11.225 1.479-14 .484-2.775 3.358-.572 4.116 1.064.759 1.637-.209 4.373-.318 5.186-.11.812 1.699 7.796 2.8 6.43 1.101-1.366 18.156-8.665 20.287-8.055z" transform="translate(-1.829 11.564)"/>
                                <g fill-rule="nonzero">
                                    <path fill="#0057CC" d="M18.34 0H3.518C1.575 0 0 1.575 0 3.518V31.66c0 1.943 1.575 3.518 3.518 3.518H18.34c1.943 0 3.518-1.575 3.518-3.518V3.518C21.858 1.575 20.283 0 18.34 0z" transform="translate(-1.829 11.564) translate(18.927 .634)"/>
                                    <path fill="#E8F7ED" d="M3.518 1.407H18.34c1.166 0 2.111.945 2.111 2.11v28.144c0 1.166-.945 2.11-2.11 2.11H3.517c-1.166 0-2.11-.944-2.11-2.11V3.518c0-1.166.944-2.11 2.11-2.11z" transform="translate(-1.829 11.564) translate(18.927 .634)"/>
                                </g>
                                <path fill="#15B34E" d="M18.344 59.862L22.475 37.015 10.679 28.181 0 59.862 18.344 59.862" transform="translate(-1.829 11.564)"/>
                                <g fill="#000">
                                    <path d="M0 3h3V0H0v3zm.705-.705h1.59V.705H.704v1.59z" transform="translate(-1.829 11.564) translate(24.829 8.436)"/>
                                    <path d="M1 1.5L1.5 1.5 1.5 1 1 1zM0 10h3V7H0v3zm.705-.705h1.59v-1.59H.704v1.59z" transform="translate(-1.829 11.564) translate(24.829 8.436)"/>
                                    <path d="M1 9L1.5 9 1.5 8.5 1 8.5zM7 3h3V0H7v3zm.705-.705h1.59V.705h-1.59v1.59z" transform="translate(-1.829 11.564) translate(24.829 8.436)"/>
                                    <path d="M8.5 1.5L9 1.5 9 1 8.5 1zM8 3.5L8 4.36 9.038 4.36 9.038 5.5 10 5.5 10 3.5zM5 0v1.5h.87V.795h.63V0H5zm.437.795h.43V.411h-.43v.384zM3.5 9L4 9 4 8 3.5 8z" transform="translate(-1.829 11.564) translate(24.829 8.436)"/>
                                    <path d="M4.107 8L4.107 9.321 3.937 9.321 3.937 9.319 3.5 9.319 3.5 10 4.5 10 4.5 8zM8.5 8.5L8.5 10 9.051 10 9.051 9.582 9.05 9.582 9.05 9.229 10 9.229 10 8.5z" transform="translate(-1.829 11.564) translate(24.829 8.436)"/>
                                    <path d="M9.5 10L10 10 10 9.5 9.5 9.5zM0 4L2.5 4 2.5 3.5 0 3.5zM0 4L0 4.777 1.296 4.777 1.296 4.386 2.06 4.386 2.06 5.235 2.06 5.5 2.5 5.5 2.5 4zM2 6.5L2.5 6.5 2.5 5.5 2 5.5zM4 5L3 5 3 6.775 3.282 6.775 3.282 7.5 4 7.5zM9 6.5L10 6.5 10 5.5 9 5.5zM4 7.5L5 7.5 5 6.5 4 6.5zM4.5 1.5L4.5 3 5.5 3 5.5 2.291 4.879 2.291 4.879 1.5zM3 3L4 3 4 1.5 3 1.5zM6 2.5L7 2.5 7 2 6 2zM0 6L1 6 1 5.5 0 5.5zM1.5 6L2 6 2 5.5 1.5 5.5zM0 6.5L2 6.5 2 6 0 6zM8.5 8L10 8 10 7.5 8.5 7.5zM4.5 8.5L5.5 8.5 5.5 8 4.5 8zM4.5 10L5.5 10 5.5 9 4.5 9zM3.5 1L4 1 4 0 3.5 0zM4 1L4.5 1 4.5.5 4 .5zM4 .5L4.5.5 4.5 0 4 0zM8 5.5L8.5 5.5 8.5 5 8 5z" transform="translate(-1.829 11.564) translate(24.829 8.436)"/>
                                    <path d="M7.11 4.528h-.63v.463h-.491v-.467h.49v-.598h.631v.602zm.443-1.16h-.795V3H5.52v2.134h-.614V3h-1.64v.368H3V4.56h.947v-.622h.332v1.743h1.503V6H8.5v-.318h-.947V3.368zM7.5 6.5L8.5 6.5 8.5 6 7.5 6zM6.5 9L6.5 10 7.5 10 7.5 9.289 7.208 9.289 7.208 9zM7.701 8L7.704 9.28 7.5 9.28 7.5 10 8 10 8 8z" transform="translate(-1.829 11.564) translate(24.829 8.436)"/>
                                    <path d="M5.777 6.87h.588v-.605h-.588v.605zM6.98 6H5.5v1.275h.56V8.5h.756v-.293h.508v-.652H8v-.41H6.98V6z" transform="translate(-1.829 11.564) translate(24.829 8.436)"/>
                                </g>
                                <path stroke="#0054D4" d="M28.048 6.632H23.69c-.552 0-1 .447-1 1v4.5h0M28.048 20.35H23.69c-.552 0-1-.447-1-1v-4h0M32.094 6.632h4.094c.552 0 1 .447 1 1v4.5h0M32.094 20.436h4.094c.552 0 1-.448 1-1v-4h0" transform="translate(-1.829 11.564)"/>
                                <path fill="red" d="M24.242 9L35.407 9 35.407 10 24.242 10z" transform="translate(-1.829 11.564)"/>
                            </g>
                        </g>
                    </g>
                </g>
            </g>
        </g>
    </g>
</svg>
