<svg xmlns="http://www.w3.org/2000/svg" xmlns:xlink="http://www.w3.org/1999/xlink" width="70" height="70" viewBox="0 0 70 70">
    <defs>
        <linearGradient id="sigqg2mdcb" x1="50%" x2="50%" y1="0%" y2="100%">
            <stop offset="0%" stop-color="#D9A35E"/>
            <stop offset="100%" stop-color="#B07A49"/>
        </linearGradient>
        <linearGradient id="cxih11plhc" x1="73.23%" x2="26.77%" y1="0%" y2="100%">
            <stop offset="0%" stop-color="#FFF" stop-opacity="0"/>
            <stop offset="100%" stop-color="#FFF"/>
        </linearGradient>
        <linearGradient id="qe1ga1x7ne" x1="72.222%" x2="27.778%" y1="0%" y2="100%">
            <stop offset="0%" stop-color="#FFF" stop-opacity="0"/>
            <stop offset="100%" stop-color="#FFF"/>
        </linearGradient>
        <linearGradient id="8pyru15iaf" x1="100%" x2="12.71%" y1="50%" y2="50%">
            <stop offset="0%" stop-color="#FFF"/>
            <stop offset="100%" stop-color="#D89E6A"/>
        </linearGradient>
        <linearGradient id="55rhgm91mg" x1="50%" x2="50%" y1="0%" y2="100%">
            <stop offset="0%" stop-color="#D9A35E"/>
            <stop offset="100%" stop-color="#B07A49"/>
        </linearGradient>
        <linearGradient id="uf3o3dm2hh" x1="100%" x2="12.71%" y1="50%" y2="50%">
            <stop offset="0%" stop-color="#FFF"/>
            <stop offset="100%" stop-color="#FFE4CC"/>
        </linearGradient>
        <rect id="fxy9t279ra" width="70" height="70" x="0" y="0" rx="35"/>
    </defs>
    <g fill="none" fill-rule="evenodd">
        <g>
            <g>
                <g transform="translate(-237 -1113) translate(16 928) translate(221 185)">
                    <mask id="0kuc6l3y8d" fill="#fff">
                        <use xlink:href="#fxy9t279ra"/>
                    </mask>
                    <use fill="url(#sigqg2mdcb)" fill-rule="nonzero" xlink:href="#fxy9t279ra"/>
                    <path fill="url(#cxih11plhc)" d="M19.975 5.802c-7.854 5.264-11.07 9.729-9.648 13.395 1.422 3.667 4.638-.798 9.648-13.395z" mask="url(#0kuc6l3y8d)" opacity=".3"/>
                    <path fill="url(#qe1ga1x7ne)" d="M57.76 4.443c-6.298 4.315-8.877 7.976-7.737 10.983 1.14 3.007 3.72-.655 7.738-10.983z" mask="url(#0kuc6l3y8d)" opacity=".3" transform="scale(-1 1) rotate(7 0 -868.538)"/>
                    <g fill-rule="nonzero" mask="url(#0kuc6l3y8d)">
                        <g>
                            <path fill="url(#8pyru15iaf)" d="M45.126 11.12c3.1 0 5.684 2.584 5.684 5.684v7.371H38.28c-1.104 0-1.944 1.143-2.012 2.334l-.005.155v11.022c0 1.423 1.009 2.49 2.017 2.49H50.81v7.112c0 3.1-2.583 5.684-5.684 5.684H-2.15c-3.1 0-5.683-2.584-5.683-5.684V16.804c0-3.1 2.583-5.684 5.683-5.684h47.277z" transform="translate(14 19) rotate(-90 21.488 32.046)"/>
                            <path fill="url(#55rhgm91mg)" d="M38.924 7.25c.138.239.056.545-.183.682-.24.138-.545.056-.683-.183-.57-.989-1.285-1.525-1.985-1.525-.276 0-.5-.224-.5-.5s.224-.5.5-.5c1.112 0 2.12.756 2.851 2.026zm1.138 6.126c0 .277-.224.5-.5.5s-.5-.223-.5-.5v-1.468c-.003-.516-.044-1.024-.122-1.515-.043-.272.144-.528.417-.571.272-.043.528.143.571.416.085.54.13 1.098.134 1.667v1.471zm0 6c0 .277-.224.5-.5.5s-.5-.223-.5-.5v-3c0-.276.224-.5.5-.5s.5.224.5.5v3zm0 6c0 .277-.224.5-.5.5s-.5-.223-.5-.5v-3c0-.276.224-.5.5-.5s.5.224.5.5v3zm0 6c0 .277-.224.5-.5.5s-.5-.223-.5-.5v-3c0-.276.224-.5.5-.5s.5.224.5.5v3zm0 6c0 .277-.224.5-.5.5s-.5-.223-.5-.5v-3c0-.276.224-.5.5-.5s.5.224.5.5v3zm0 6c0 .277-.224.5-.5.5s-.5-.223-.5-.5v-3c0-.276.224-.5.5-.5s.5.224.5.5v3zm-.783 6.116c-.11.253-.405.369-.658.258-.253-.11-.369-.405-.258-.658.348-.8.58-1.748.664-2.757.022-.276.264-.48.54-.457.274.023.479.264.456.54-.093 1.116-.35 2.172-.744 3.074zm-5.51 2.732c-.277 0-.501-.223-.501-.5 0-.276.223-.5.5-.5l2.376-.002c.17-.008.34-.048.51-.119.254-.106.547.015.653.27.107.254-.014.547-.269.653-.274.115-.556.18-.869.195l-2.4.003zm-6.001 0c-.276 0-.5-.224-.5-.5s.224-.5.5-.5h3c.276 0 .5.224.5.5s-.224.5-.5.5h-3zm-6 0c-.276 0-.5-.224-.5-.5s.224-.5.5-.5h3c.276 0 .5.224.5.5s-.224.5-.5.5h-3zm-6 0c-.276 0-.5-.224-.5-.5s.224-.5.5-.5h3c.276 0 .5.224.5.5s-.224.5-.5.5h-3zm-6 0c-.276 0-.5-.224-.5-.5s.224-.5.5-.5h3c.276 0 .5.224.5.5s-.224.5-.5.5h-3zm-5.7-2.265c-.128-.245-.033-.547.211-.675.245-.128.547-.033.675.212.527 1.005 1.208 1.611 1.888 1.712.273.041.462.295.421.568-.04.274-.295.462-.568.422-1.043-.156-1.966-.976-2.627-2.239zm-1.006-6.171c0-.276.224-.5.5-.5s.5.224.5.5v1.742c.002.422.03.84.082 1.247.035.274-.158.525-.432.56-.274.035-.525-.159-.56-.433-.057-.448-.088-.906-.09-1.371v-1.745zm0-6c0-.276.224-.5.5-.5s.5.224.5.5v3c0 .276-.224.5-.5.5s-.5-.224-.5-.5v-3zm0-6c0-.276.224-.5.5-.5s.5.224.5.5v3c0 .276-.224.5-.5.5s-.5-.224-.5-.5v-3zm0-6c0-.276.224-.5.5-.5s.5.224.5.5v3c0 .276-.224.5-.5.5s-.5-.224-.5-.5v-3zm0-6c0-.276.224-.5.5-.5s.5.224.5.5v3c0 .276-.224.5-.5.5s-.5-.224-.5-.5v-3zm0-6c0-.276.224-.5.5-.5s.5.224.5.5v3c0 .276-.224.5-.5.5s-.5-.224-.5-.5v-3zm.91-6.11c.121-.248.42-.351.669-.23.248.12.352.42.231.668-.376.774-.637 1.715-.749 2.728-.03.275-.277.473-.551.443-.275-.03-.473-.278-.443-.552.124-1.124.416-2.176.843-3.056zM9.64 5.225c.276 0 .5.224.5.5s-.223.5-.5.5H7.003c-.102.004-.203.019-.303.044-.268.067-.54-.095-.607-.363-.068-.268.095-.54.363-.607.168-.042.34-.067.529-.073l2.655-.001zm6 0c.277 0 .5.224.5.5s-.223.5-.5.5h-3c-.276 0-.5-.224-.5-.5s.224-.5.5-.5h3zm6 0c.277 0 .5.224.5.5s-.223.5-.5.5h-3c-.276 0-.5-.224-.5-.5s.224-.5.5-.5h3zm6 0c.277 0 .5.224.5.5s-.223.5-.5.5h-3c-.276 0-.5-.224-.5-.5s.224-.5.5-.5h3zm6 0c.277 0 .5.224.5.5s-.223.5-.5.5h-3c-.276 0-.5-.224-.5-.5s.224-.5.5-.5h3z" transform="translate(14 19)"/>
                            <path fill="url(#uf3o3dm2hh)" d="M27.337 2.27c.89 0 1.78.8 1.78 1.866v8.267c0 1.067-.763 1.867-1.78 1.867h-11.44c-.89 0-1.78-.8-1.78-1.867V4.136c0-.933.763-1.866 1.78-1.866h11.44zm-8.047 3.5c-1.375 0-2.5 1.125-2.5 2.5s1.125 2.5 2.5 2.5 2.5-1.125 2.5-2.5-1.125-2.5-2.5-2.5z" transform="translate(14 19) rotate(-90 21.617 8.27)"/>
                        </g>
                    </g>
                </g>
            </g>
        </g>
    </g>
</svg>
