<svg xmlns="http://www.w3.org/2000/svg" xmlns:xlink="http://www.w3.org/1999/xlink" width="70" height="70" viewBox="0 0 70 70">
    <defs>
        <linearGradient id="su8jwuz5eb" x1="50%" x2="50%" y1="0%" y2="100%">
            <stop offset="0%" stop-color="#62BEFF"/>
            <stop offset="100%" stop-color="#338AFF"/>
        </linearGradient>
        <linearGradient id="8yc0lsmpjd" x1="73.23%" x2="26.77%" y1="0%" y2="100%">
            <stop offset="0%" stop-color="#FFF" stop-opacity="0"/>
            <stop offset="100%" stop-color="#FFF"/>
        </linearGradient>
        <linearGradient id="35jc5auj2e" x1="72.222%" x2="27.778%" y1="0%" y2="100%">
            <stop offset="0%" stop-color="#FFF" stop-opacity="0"/>
            <stop offset="100%" stop-color="#FFF"/>
        </linearGradient>
        <rect id="1tcjlup3oa" width="70" height="70" x="0" y="0" rx="35"/>
    </defs>
    <g fill="none" fill-rule="evenodd">
        <g>
            <g>
                <g transform="translate(-68 -978) translate(16 928) translate(52 50)">
                    <mask id="ryj730nixc" fill="#fff">
                        <use xlink:href="#1tcjlup3oa"/>
                    </mask>
                    <use fill="url(#su8jwuz5eb)" xlink:href="#1tcjlup3oa"/>
                    <g mask="url(#ryj730nixc)" opacity=".95">
                        <g>
                            <path fill="#FFF" d="M0 0H50V50H0z" opacity=".01" transform="translate(10 18)"/>
                            <path fill="#FFF" fill-rule="nonzero" d="M0 0H50V50H0z" opacity=".01" transform="translate(10 18)"/>
                            <g fill-rule="nonzero">
                                <path fill="#FFF" d="M43.128 17.707c-.174-4.013-.917-6.602-2.164-8.93-1.409-2.664-3.587-4.842-6.25-6.25C32.033 1.094 29 .328 23.826.328h-3.76c-1.71-.018-3.419.092-5.112.329-2.226.253-4.384.922-6.362 1.974C5.887 4.063 3.675 6.275 2.243 8.98.78 11.72 0 14.803 0 20.066v3.832c0 5.263.78 8.352 2.243 11.089 1.432 2.705 3.644 4.917 6.35 6.349 2.736 1.463 5.821 2.243 11.088 2.243h3.826c5.263 0 8.352-.78 11.088-2.243 2.705-1.432 4.917-3.644 6.35-6.35 1.463-2.736 2.242-5.822 2.242-11.088v-3.832c0-.836-.02-1.619-.059-2.359z" transform="translate(10 18) translate(3.125 3.125)"/>
                                <path fill="#0068FF" d="M29.914 14.717v10.326h-1.187c-.326-.002-.59-.266-.592-.592v-9.734h1.78zm-11.746 8.665v.96c0 .394-.32.714-.714.714H9.622v-.46c-.023-.376.086-.747.309-1.05l5.69-7.05H9.869v-1.779h8.3v.253c.024.468-.106.93-.372 1.316l-.036.04c-.07.079-.224.256-.3.352l-5.338 6.704h6.046zm4.487-6.379c.86 0 1.697.274 2.391.783v-.556h1.665v7.813h-.951c-.39 0-.707-.312-.714-.7-1.42 1.035-3.346 1.039-4.77.008-1.424-1.032-2.021-2.863-1.48-4.536.543-1.672 2.1-2.805 3.859-2.805v-.007zm0 1.671c-1.318 0-2.385 1.068-2.385 2.385 0 1.317 1.067 2.385 2.385 2.385 1.317 0 2.384-1.068 2.384-2.385 0-1.317-1.067-2.385-2.384-2.385zm12.523-1.72c2.255-.002 4.085 1.824 4.088 4.079.004 2.255-1.82 4.087-4.075 4.092-2.255.005-4.088-1.817-4.096-4.072-.003-1.086.425-2.128 1.191-2.897.766-.769 1.806-1.201 2.892-1.202zm0 1.684c-1.327 0-2.402 1.075-2.402 2.401 0 1.327 1.075 2.402 2.402 2.402 1.326 0 2.4-1.075 2.4-2.402 0-1.326-1.074-2.4-2.4-2.4z" transform="translate(10 18) translate(3.125 3.125)"/>
                                <path fill="#0068FF" d="M34.089 40.385c-2.81 1.503-5.875 2.118-10.582 2.118H19.68c-4.704 0-7.77-.615-10.582-2.118-2.52-1.334-4.578-3.398-5.905-5.921-1.503-2.796-2.118-5.846-2.118-10.566v-3.832c0-4.707.615-7.773 2.118-10.582C4.43 7.142 6.3 5.195 8.59 3.865c-5.714 7.32-5.777 20.612-.191 28.043.921 1.368.023 3.743-1.368 5.128-.22.22-.132.349.194.385 1.973.214 4.454-.349 6.207-1.204 7.125 3.947 17.997 4.02 25.28.25-1.24 1.625-2.817 2.961-4.622 3.918z" transform="translate(10 18) translate(3.125 3.125)"/>
                            </g>
                        </g>
                    </g>
                    <path fill="url(#8yc0lsmpjd)" d="M17.746 12.907c-7.743 5.189-10.914 9.59-9.512 13.206 1.402 3.615 4.573-.787 9.512-13.206z" mask="url(#ryj730nixc)" opacity=".5"/>
                    <path fill="url(#35jc5auj2e)" d="M57.958 6.636c-6.21 4.255-8.754 7.865-7.63 10.829 1.125 2.964 3.668-.645 7.63-10.829z" mask="url(#ryj730nixc)" opacity=".5" transform="scale(-1 1) rotate(7 0 -870.567)"/>
                </g>
            </g>
        </g>
    </g>
</svg>
